HIERARCHY
ROOT Hips
{
	OFFSET -0.001795 -0.223333 0.028219
	CHANNELS 6 Xposition Yposition Zposition Zrotation Yrotation Xrotation 
	JOINT LeftUpLeg
	{
		OFFSET 0.069520 -0.091406 -0.006815
		CHANNELS 3 Zrotation Yrotation Xrotation
		JOINT LeftLeg
		{
			OFFSET 0.034277 -0.375199 -0.004496
			CHANNELS 3 Zrotation Yrotation Xrotation
			JOINT LeftFoot
			{
				OFFSET -0.013596 -0.397961 -0.043693
				CHANNELS 3 Zrotation Yrotation Xrotation
				JOINT LeftToe
				{
					OFFSET 0.026358 -0.055791 0.119288
					CHANNELS 3 Zrotation Yrotation Xrotation
					End Site
					{
						OFFSET 0.000000 0.000000 0.000000
					}
				}
			}
		}
	}
	JOINT RightUpLeg
	{
		OFFSET -0.067670 -0.090522 -0.004320
		CHANNELS 3 Zrotation Yrotation Xrotation
		JOINT RightLeg
		{
			OFFSET -0.038290 -0.382569 -0.008850
			CHANNELS 3 Zrotation Yrotation Xrotation
			JOINT RightFoot
			{
				OFFSET 0.015774 -0.398415 -0.042312
				CHANNELS 3 Zrotation Yrotation Xrotation
				JOINT RightToe
				{
					OFFSET -0.025372 -0.048144 0.123348
					CHANNELS 3 Zrotation Yrotation Xrotation
					End Site
					{
						OFFSET 0.000000 0.000000 0.000000
					}
				}
			}
		}
	}
	JOINT Spine
	{
		OFFSET -0.002533 0.108963 -0.026696
		CHANNELS 3 Zrotation Yrotation Xrotation
		JOINT Spine1
		{
			OFFSET 0.005487 0.135180 0.001092
			CHANNELS 3 Zrotation Yrotation Xrotation
			JOINT Spine2
			{
				OFFSET 0.001457 0.052922 0.025425
				CHANNELS 3 Zrotation Yrotation Xrotation
				JOINT Neck
				{
					OFFSET -0.002778 0.213870 -0.042857
					CHANNELS 3 Zrotation Yrotation Xrotation
					JOINT Head
					{
						OFFSET 0.005152 0.064970 0.051349
						CHANNELS 3 Zrotation Yrotation Xrotation
						End Site
						{
							OFFSET 0.000000 0.000000 0.000000
						}
					}
				}
				JOINT LeftShoulder
				{
					OFFSET 0.078845 0.121749 -0.034090
					CHANNELS 3 Zrotation Yrotation Xrotation
					JOINT LeftArm
					{
						OFFSET 0.090977 0.030469 -0.008868
						CHANNELS 3 Zrotation Yrotation Xrotation
						JOINT LeftForeArm
						{
							OFFSET 0.259612 -0.012772 -0.027456
							CHANNELS 3 Zrotation Yrotation Xrotation
							JOINT LeftHand
							{
								OFFSET 0.249234 0.008986 -0.001171
								CHANNELS 3 Zrotation Yrotation Xrotation
								End Site
								{
									OFFSET 0.000000 0.000000 0.000000
								}
							}
						}
					}
				}
				JOINT RightShoulder
				{
					OFFSET -0.081759 0.118833 -0.038615
					CHANNELS 3 Zrotation Yrotation Xrotation
					JOINT RightArm
					{
						OFFSET -0.096012 0.032551 -0.009143
						CHANNELS 3 Zrotation Yrotation Xrotation
						JOINT RightForeArm
						{
							OFFSET -0.253742 -0.013329 -0.021401
							CHANNELS 3 Zrotation Yrotation Xrotation
							JOINT RightHand
							{
								OFFSET -0.255298 0.007772 -0.005559
								CHANNELS 3 Zrotation Yrotation Xrotation
								End Site
								{
									OFFSET 0.000000 0.000000 0.000000
								}
							}
						}
					}
				}
			}
		}
	}
}
MOTION
Frames: 7
Frame Time: 0.050000
0.000000 0.941646 0.000000 -3.023782 16.127536 5.685279 15.479374 -0.814816 -24.962978 -3.560701 -0.232645 15.594760 0.141566 9.062086 18.413750 0.000000 0.000000 0.000000 -3.277651 0.561130 -8.673846 -1.786458 0.490533 17.528242 -1.634437 -4.835224 4.215990 0.000000 0.000000 0.000000 0.844392 -3.061337 30.976036 -9.083164 2.741850 -26.166960 -0.463487 -0.874037 25.402972 8.329934 -2.940456 -21.456469 0.000000 0.000000 0.000000 -25.874318 -13.677093 4.045640 -32.323921 -22.344469 0.480919 18.294224 -44.529447 -6.063177 0.000000 0.000000 0.000000 29.182650 -2.514865 -0.420265 42.062225 7.952818 -4.519720 -3.155224 44.761663 2.093152 0.000000 0.000000 0.000000 
0.032509 0.942984 0.010247 -3.091702 16.061226 5.875426 14.599589 -0.895041 -24.127169 -5.172770 0.116121 15.073095 0.631258 9.607864 17.980466 0.000000 0.000000 0.000000 -5.348452 0.403779 -9.435803 -1.163117 0.240787 20.404410 -0.977883 -3.650832 6.035617 0.000000 0.000000 0.000000 0.191387 -2.602127 29.238193 -9.571539 2.875496 -25.613613 0.088482 -0.704228 26.358440 10.727774 -4.155734 -23.265918 0.000000 0.000000 0.000000 -25.342432 -12.562803 3.315764 -32.634168 -23.671984 0.702703 16.906484 -44.684809 -5.519711 0.000000 0.000000 0.000000 30.800266 -4.243016 -1.393470 42.639684 8.470937 -4.708986 -1.874107 44.088924 2.775682 0.000000 0.000000 0.000000 
0.066005 0.947267 0.020499 -3.262484 14.943067 4.841084 12.532341 -0.936631 -21.988111 -4.775994 0.037397 15.804254 1.250145 9.911841 16.556835 0.000000 0.000000 0.000000 -6.371847 0.347405 -11.243577 -0.824393 -0.019809 26.803050 -0.021270 -2.967117 11.544219 0.000000 0.000000 0.000000 0.614184 -2.351237 27.118186 -9.339833 2.876925 -25.069720 0.017715 -0.195799 27.786950 12.479237 -5.545940 -22.407482 0.000000 0.000000 0.000000 -25.803110 -13.646555 3.956981 -31.044476 -24.794932 0.789083 13.804074 -42.523869 -4.007902 0.000000 0.000000 0.000000 31.315717 -3.605997 -0.806682 43.109368 8.124190 -5.017948 -3.298884 43.611056 2.248086 0.000000 0.000000 0.000000 
0.098011 0.951701 0.031838 -3.417690 13.402055 3.487008 11.715623 -0.815328 -19.783474 -5.417733 0.188265 16.906658 0.332791 8.397811 16.665992 0.000000 0.000000 0.000000 -7.598545 0.237082 -13.556111 -0.550914 -0.230531 32.894120 -0.585915 -5.378823 16.398481 0.000000 0.000000 0.000000 -0.117774 -2.094216 27.473478 -8.976087 2.776840 -25.655674 0.564620 -0.464821 28.450541 11.989030 -5.119738 -23.862232 0.000000 0.000000 0.000000 -26.334689 -14.223012 4.767603 -29.068236 -24.445991 0.424351 12.532240 -39.803191 -3.183987 0.000000 0.000000 0.000000 29.234192 -3.382936 -1.068257 44.778921 7.544470 -5.139042 -2.593397 43.836181 2.455012 0.000000 0.000000 0.000000 
0.125677 0.956913 0.043347 -3.317997 14.002840 2.305849 9.698385 -0.860217 -16.382961 -5.502233 0.237691 14.822378 0.869558 9.144300 16.246953 0.000000 0.000000 0.000000 -7.523230 0.186048 -16.822207 -0.044542 -0.888134 38.482149 -0.940637 -6.017736 16.065792 0.000000 0.000000 0.000000 1.003022 -2.480977 27.806342 -8.966794 2.837206 -25.050172 -0.261181 -2.388486 27.157412 11.283432 -5.046102 -23.149122 0.000000 0.000000 0.000000 -26.230138 -15.100459 5.881236 -28.057507 -24.355049 0.296616 11.583690 -36.759596 -2.518878 0.000000 0.000000 0.000000 27.977735 -2.985758 -1.441058 47.401084 6.059790 -5.475684 -1.084963 43.817932 2.882588 0.000000 0.000000 0.000000 
0.147771 0.962906 0.055459 -3.150989 13.192779 1.433895 8.751706 -0.737747 -13.158139 -5.666673 0.334963 13.381687 -0.254232 7.362984 16.130956 0.000000 0.000000 0.000000 -6.750451 0.313330 -20.512751 0.989425 -1.517427 42.227031 -1.929964 -7.933651 15.870317 0.000000 0.000000 0.000000 0.828906 -2.410817 28.125173 -7.949148 2.542402 -26.434699 -1.518437 -3.316386 29.139917 12.027892 -5.499900 -24.910627 0.000000 0.000000 0.000000 -24.498420 -16.335522 7.131041 -27.021213 -24.734917 0.024953 12.673030 -33.847011 -2.587923 0.000000 0.000000 0.000000 29.062852 -3.186904 -2.063591 46.938793 6.588032 -5.335932 1.411599 44.417500 3.785054 0.000000 0.000000 0.000000 
0.165422 0.967305 0.067544 -3.391031 12.417530 0.507774 7.364586 -0.663471 -10.772245 -4.870215 0.218032 13.008064 0.538701 8.376178 15.970252 0.000000 0.000000 0.000000 -4.810598 0.734143 -21.575075 2.072835 -1.804236 40.705950 -3.035956 -9.797020 14.963433 0.000000 0.000000 0.000000 0.937320 -2.408584 28.321163 -6.886167 2.335069 -26.518218 -2.686399 -4.127120 28.544092 10.787495 -4.782163 -25.459655 0.000000 0.000000 0.000000 -23.040127 -15.654475 7.036538 -26.485821 -25.936019 0.124704 13.037610 -32.770707 -2.558655 0.000000 0.000000 0.000000 29.660976 -2.337790 -2.051163 47.593938 5.678167 -5.516649 2.008995 45.417592 3.950223 0.000000 0.000000 0.000000 
